# xmcd CD database file
#
# Track frame offsets:
#	150
#	15637
#	38910
#
# Disc length: 726 seconds
#
# Revision: 0
# Processed by: cddbd v1.5.1PL2 Copyright (c) Steve Scherf et al.
# Submitted via: CDex 1.51
#
DISCID=1a02d403
DTITLE=中島卓偉 - メッセージ
DYEAR=1994
DGENRE=JPop
TTITLE0=メッセージ
TTITLE1=ビルボードで鳴くカナリア
TTITLE2=メッセージ -vocal off version-
EXTD=YEAR: 1994
EXTT0=
EXTT1=
EXTT2=
PLAYORDER=
